:SAMPLES-PER-SECOND 30
:FULLY-SPECIFIED
:DEGREES
449
root  -18.2956 32.1429 -5.06874 98.5373 -78.7554 -100.011
RightUpLeg  -31.7456 -11.4308 -7.71501
RightLeg  61.1073 -0.354368 -1.20856
RightFoot  -16.8174 0.919544 21.3363
RightToes  -1.16417e-010 0 -3.6325e-017
Spine  23.0244 -1.57043 -17.2177
Spine1  -9.84051 -6.76958 30.2335
HEad  -19.5005 26.3128 1.75843
LeftShoulder1  0.817819 -3.80557 -3.12563
LeftArm  19.4494 14.7564 -24.1943
LeftForeArm  72.4048 -61.7195 -14.156
LeftHand  2.19305 9.59905 54.578
RightShoulder  -0.124208 -4.30805 7.51359
RightArm  -40.8003 -13.9766 46.3813
RightForeArm  -34.3157 44.2526 12.7875
RightHand  -2.4006 0.888132 -42.6601
LeftUpLeg  -10.8339 5.46102 51.2374
LeftLeg  40.5774 8.54918 8.13107
LeftFoot  1.12842 4.79808 -42.113
LeftToes  6.91183e-011 3.39355e-011 2.1261e-011
450
root  -18.7846 31.9511 -4.61725 73.3795 -81.505 -76.6816
RightUpLeg  -27.9169 -13.1132 -13.0843
RightLeg  62.508 -0.271274 -1.13787
RightFoot  -18.805 1.3963 23.1039
RightToes  -1.16417e-010 0 -3.6325e-017
Spine  22.2378 -1.00725 -13.5637
Spine1  -9.50661 -5.5366 29.8381
HEad  -20.0947 20.4636 -3.89366
LeftShoulder1  0.819978 -4.4318 -2.14471
LeftArm  30.0073 10.8636 -21.1292
LeftForeArm  71.1797 -62.7754 -14.9934
LeftHand  1.80988 9.21028 50.3261
RightShoulder  -0.184239 -4.74057 7.06041
RightArm  -46.406 -9.56822 42.3847
RightForeArm  -41.3898 43.2391 12.6361
RightHand  -1.84834 -0.205023 -39.934
LeftUpLeg  -13.0316 8.56605 49.4953
LeftLeg  43.2654 1.75378 2.13921
LeftFoot  0.939532 5.0019 -44.3415
LeftToes  6.91183e-011 3.39355e-011 2.1261e-011
451
root  -19.1958 32.1122 -3.83871 38.2384 -82.1162 -42.2778
RightUpLeg  -24.064 -14.3433 -18.6363
RightLeg  61.3534 -1.22942 -2.95145
RightFoot  -18.1185 1.38536 25.1583
RightToes  -1.16417e-010 0 -3.6325e-017
Spine  21.0296 -0.4057 -10.2234
Spine1  -10.0426 -4.15389 29.5829
HEad  -19.8716 14.3515 -9.25766
LeftShoulder1  0.779897 -4.46974 -1.52126
LeftArm  36.2287 8.8311 -18.0689
LeftForeArm  70.6679 -62.5706 -14.886
LeftHand  1.60215 9.04578 46.9757
RightShoulder  -0.263901 -5.34227 6.49493
RightArm  -52.4793 -5.65908 38.2086
RightForeArm  -43.5754 43.8312 12.943
RightHand  -1.13535 -1.90649 -36.9388
LeftUpLeg  -16.1114 10.586 46.3527
LeftLeg  46.7518 -4.01962 -4.16535
LeftFoot  2.17073 5.27847 -42.7536
LeftToes  6.91183e-011 3.39355e-011 2.1261e-011
452
root  -19.545 32.5703 -2.75055 6.38034 -80.1991 -10.5372
RightUpLeg  -19.689 -15.5885 -25.1521
RightLeg  57.9955 -2.41411 -4.65064
RightFoot  -14.8886 0.751598 26.9991
RightToes  -1.16417e-010 0 -3.6325e-017
Spine  19.4597 0.12144 -7.11829
Spine1  -10.8636 -2.78928 28.0128
HEad  -19.1767 7.97565 -13.5157
LeftShoulder1  0.707181 -4.09577 -0.97836
LeftArm  39.2545 8.5566 -15.2818
LeftForeArm  68.7889 -61.2607 -14.0981
LeftHand  1.27802 8.52732 44.0171
RightShoulder  -0.295233 -5.63885 5.926
RightArm  -57.9409 -2.70788 33.4515
RightForeArm  -44.3333 44.1485 13.0956
RightHand  -0.826778 -2.73947 -35.4755
LeftUpLeg  -18.7824 11.2825 41.2235
LeftLeg  49.383 -8.31538 -9.80784
LeftFoot  2.30594 4.73477 -38.2342
LeftToes  6.91183e-011 3.39355e-011 2.1261e-011
453
root  -19.826 33.2952 -1.44476 -13.4987 -76.3954 8.91077
RightUpLeg  -13.3776 -17.045 -32.8149
RightLeg  52.0925 -2.61686 -4.0572
RightFoot  -10.4032 -0.325709 29.6034
RightToes  -1.16417e-010 0 -3.6325e-017
Spine  18.0051 0.854367 -3.74939
Spine1  -11.3284 -1.29648 23.9025
HEad  -17.8895 0.713786 -16.9542
LeftShoulder1  0.633208 -3.41047 -0.822184
LeftArm  40.3435 7.99301 -13.625
LeftForeArm  64.5185 -59.0199 -12.9862
LeftHand  1.0193 8.08819 41.1702
RightShoulder  -0.314936 -5.93964 4.97096
RightArm  -62.2874 -2.06096 27.6677
RightForeArm  -46.4787 44.0706 13.1216
RightHand  -0.902022 -2.47146 -35.0823
LeftUpLeg  -19.4669 10.7413 34.2606
LeftLeg  48.5811 -11.5465 -13.2529
LeftFoot  0.335072 3.55593 -33.8456
LeftToes  6.91183e-011 3.39355e-011 2.1261e-011
454
root  -20.0359 34.3063 0.0580529 -22.4196 -71.7747 17.3078
RightUpLeg  -5.47107 -17.1675 -39.7996
RightLeg  43.0737 -3.4432 -3.68867
RightFoot  -3.16621 -2.56414 34.0435
RightToes  -1.16417e-010 0 -3.6325e-017
Spine  16.5984 1.94853 0.898055
Spine1  -11.8708 0.629498 17.5525
HEad  -14.8028 -7.30366 -20.3437
LeftShoulder1  0.595659 -2.52828 -1.6452
LeftArm  40.3135 5.74336 -13.3245
LeftForeArm  58.8973 -55.8367 -11.6281
LeftHand  1.04872 8.25773 39.9914
RightShoulder  -0.351248 -6.60603 3.21561
RightArm  -64.5335 -4.81199 21.059
RightForeArm  -49.2477 44.4546 13.3517
RightHand  -0.930474 -2.33604 -34.595
LeftUpLeg  -18.3762 9.13482 26.5042
LeftLeg  43.5002 -13.493 -13.0204
LeftFoot  -1.49724 2.68703 -30.473
LeftToes  6.91183e-011 3.39355e-011 2.1261e-011
455
root  -20.2116 35.4568 1.74028 -24.4963 -67.625 19.9641
RightUpLeg  1.74662 -13.8151 -43.6702
RightLeg  31.9395 -9.34722 -6.23742
RightFoot  8.68644 -6.72464 37.2939
RightToes  -1.16417e-010 0 -3.6325e-017
Spine  14.5443 3.4895 7.32233
Spine1  -13.4206 3.16672 9.39602
HEad  -9.07567 -15.328 -23.6051
LeftShoulder1  0.524637 -1.53475 -2.25101
LeftArm  39.4494 2.98159 -14.4657
LeftForeArm  53.1839 -52.4883 -10.4268
LeftHand  1.19103 8.63928 40.1381
RightShoulder  -0.347668 -7.20913 0.982559
RightArm  -62.7813 -11.0426 14.0383
RightForeArm  -49.9874 45.4098 13.7778
RightHand  -0.899715 -2.42883 -34.5161
LeftUpLeg  -16.9927 6.75869 19.2525
LeftLeg  36.3222 -12.9769 -9.74949
LeftFoot  -1.55605 2.35524 -26.9876
LeftToes  6.91183e-011 3.39355e-011 2.1261e-011
